# xmcd
#
# Track frame offsets:
#	150
#	16959
#	44830
#	66054
#	95128
#	121753
#	156639
#	179096
#
# Disc length: 2740 seconds
#
# Revision: 1
# Processed by: cddbd v1.5.2PL0 Copyright (c) Steve Scherf et al.
# Submitted via: audiograbber 1.83.01
#
DISCID=740ab208
DTITLE=Adasiewicz, Jason - Sun Rooms
DYEAR=2010
DGENRE=Blues
TTITLE0=Get in There
TTITLE1=Life
TTITLE2=Stake
TTITLE3=Rose Garden
TTITLE4=You Can't
TTITLE5=Off My Back Jack
TTITLE6=Overtones Of China
TTITLE7=Warm Valley
EXTD=
EXTT0=
EXTT1=
EXTT2=
EXTT3=
EXTT4=
EXTT5=
EXTT6=
EXTT7=
PLAYORDER=
